<!-- Generator: Avocode undefined - http://avocode.com -->
<svg height="19" width="19" xmlns:xlink="http://www.w3.org/1999/xlink" xmlns="http://www.w3.org/2000/svg" viewBox="0 0 19 19">
    <path fill="#545454" fill-rule="evenodd" d="M 9.5 0 C 4.26 0 0 4.26 0 9.5 C 0 14.74 4.26 19 9.5 19 C 14.74 19 19 14.74 19 9.5 C 19 4.26 14.74 0 9.5 0 Z M 14.03 16.24 C 13.95 15.75 13.52 13.37 12.46 10.45 C 15 10.05 17.23 10.72 17.51 10.8 C 17.15 13.06 15.85 15.01 14.03 16.24 Z M 11.96 9.18 C 11.9 9.04 11.85 8.9 11.79 8.76 C 11.62 8.36 11.44 7.97 11.25 7.58 C 14.25 6.36 15.61 4.61 15.78 4.38 C 16.91 5.76 17.59 7.52 17.61 9.44 C 17.34 9.38 14.66 8.84 11.96 9.18 Z M 10.62 6.38 C 9.29 3.93 7.82 1.93 7.6 1.63 C 8.21 1.48 8.84 1.4 9.5 1.4 C 11.56 1.4 13.44 2.17 14.88 3.45 C 14.73 3.65 13.51 5.3 10.62 6.38 Z M 1.56 7.85 C 2.08 5.34 3.78 3.24 6.05 2.17 C 6.26 2.47 7.71 4.47 9.06 6.86 C 5.26 7.87 1.92 7.86 1.56 7.85 Z M 9.73 8.11 C 9.96 8.57 10.18 9.03 10.38 9.49 C 10.28 9.52 10.17 9.55 10.07 9.59 C 5.88 10.94 3.65 14.63 3.47 14.94 C 2.17 13.5 1.38 11.6 1.38 9.51 C 1.38 9.43 1.39 9.35 1.39 9.27 C 1.74 9.27 5.67 9.32 9.73 8.11 Z M 10.88 10.85 C 10.9 10.84 10.92 10.84 10.94 10.83 C 12.08 13.79 12.55 16.27 12.67 16.98 C 11.69 17.4 10.62 17.63 9.5 17.63 C 7.62 17.63 5.89 16.99 4.52 15.91 C 4.66 15.62 6.31 12.44 10.88 10.85 Z" />
</svg>