<!-- Generator: Avocode undefined - http://avocode.com -->
<svg height="19" width="10" xmlns:xlink="http://www.w3.org/1999/xlink" xmlns="http://www.w3.org/2000/svg" viewBox="0 0 10 19">
    <path fill="#545454" fill-rule="evenodd" d="M 6.81 0.01 C 5.68 0.01 4.57 0.2 3.83 0.57 C 3.09 0.95 2.55 1.61 2.27 2.22 C 1.99 2.81 1.86 3.54 1.86 4.76 C 1.86 4.76 1.86 5.96 1.86 5.96 C 1.86 5.96 -0.01 5.96 -0.01 5.96 C -0.01 5.96 -0.01 8.98 -0.01 8.98 C -0.01 8.98 1.86 8.98 1.86 8.98 C 1.86 8.98 1.86 19 1.86 19 C 1.86 19 5.84 19 5.84 19 C 5.84 19 5.84 8.98 5.84 8.98 C 5.84 8.98 8.33 8.98 8.33 8.98 C 8.33 8.98 9.02 5.96 9.02 5.96 C 9.02 5.96 5.84 5.96 5.84 5.96 C 5.84 5.96 5.84 4.83 5.84 4.83 C 5.84 4.09 5.97 3.6 6.23 3.34 C 6.48 3.08 7 2.88 7.59 2.88 C 8.19 2.88 8.68 3.22 9.28 3.58 C 9.28 3.58 10.01 0.74 10.01 0.74 C 8.89 0.41 7.98 0.01 6.81 0.01 Z" />
</svg>