<!-- Generator: Avocode undefined - http://avocode.com -->
<svg height="388" width="469" xmlns:xlink="http://www.w3.org/1999/xlink" xmlns="http://www.w3.org/2000/svg" viewBox="0 0 469 388">
    <path fill="#e8ebf0" fill-rule="evenodd" d="M 0.19 276.76 C 0.19 276.76 469 276.76 469 276.76 C 469 276.76 469 281.75 469 287.91 C 469 287.91 469 326.96 469 326.96 C 469 333.13 464.01 338.12 457.84 338.12 C 457.84 338.12 11.33 338.12 11.33 338.12 C 5.17 338.12 0.18 333.13 0.18 326.96 C 0.18 326.96 0.18 287.91 0.18 287.91 C 0.18 281.75 0.19 276.76 0.19 276.76 Z" />
    <path fill="#e8ebf0" fill-rule="evenodd" d="M 180.82 338.45 C 180.82 338.45 177.7 381.96 173.79 381.74 C 173.79 381.74 151.37 384.98 153.82 385.87 C 153.82 385.87 151.7 387.21 162.86 387.43 C 162.86 387.43 279.45 387.43 279.45 387.43 C 279.45 387.43 296.29 387.43 296.29 387.43 C 296.29 387.43 302.65 387.43 302.65 387.43 C 302.65 387.43 306.11 387.43 306.11 387.43 C 306.11 387.43 315.48 387.77 314.15 385.65 C 314.15 385.65 310.45 383.54 293.83 381.75 C 293.83 381.75 290.71 383.41 287.25 338.12 C 287.25 338.12 180.82 338.45 180.82 338.45 Z" />
    <path fill="#d8dbe1" fill-rule="evenodd" d="M 180.8 338.12 C 180.8 338.12 287.25 338.12 287.25 338.12 C 287.25 338.12 287.7 347.17 287.7 347.17 C 287.7 347.17 180.14 347.17 180.14 347.17 C 180.14 347.17 180.8 338.12 180.8 338.12 Z" />
    <path fill="#474e5d" fill-rule="evenodd" d="M 11.33 0.5 C 11.33 0.5 457.84 0.5 457.84 0.5 C 464.01 0.5 469 5.5 469 11.66 C 469 11.66 469 283.67 469 283.67 C 469 289.84 469 294.83 469 294.83 C 469 294.83 0.19 294.83 0.19 294.83 C 0.19 294.83 0.18 289.84 0.18 283.67 C 0.18 283.67 0.18 11.66 0.18 11.66 C 0.18 5.5 5.17 0.5 11.33 0.5 Z" />
    <path fill="#70c6eb" fill-rule="evenodd" d="M 20.26 19.25 C 20.26 19.25 449.36 19.25 449.36 19.25 C 449.36 19.25 449.36 276.31 449.36 276.31 C 449.36 276.31 20.26 276.31 20.26 276.31 C 20.26 276.31 20.26 19.25 20.26 19.25 Z" />
    <path fill="#a5a5a5" fill-rule="evenodd" d="M 234.92 6.52 C 236.65 6.52 238.05 7.92 238.05 9.64 C 238.05 11.37 236.65 12.77 234.92 12.77 C 233.2 12.77 231.8 11.37 231.8 9.64 C 231.8 7.92 233.2 6.52 234.92 6.52 Z" />
    <path fill="#474e5d" fill-rule="evenodd" d="M 234.48 304.2 C 240.64 304.2 245.63 309.2 245.63 315.36 C 245.63 321.52 240.64 326.52 234.48 326.52 C 228.31 326.52 223.32 321.52 223.32 315.36 C 223.32 309.2 228.31 304.2 234.48 304.2 Z" />
</svg>