<!-- Generator: Avocode undefined - http://avocode.com -->
<svg height="169" width="119" xmlns:xlink="http://www.w3.org/1999/xlink" xmlns="http://www.w3.org/2000/svg" viewBox="0 0 119 169">
    <path fill="#474e5d" fill-rule="evenodd" d="M 5.49 0.6 C 5.49 0.6 112.99 0.6 112.99 0.6 C 115.95 0.6 118.34 3 118.34 5.96 C 118.34 5.96 118.34 162.79 118.34 162.79 C 118.34 165.75 115.95 168.14 112.99 168.14 C 112.99 168.14 5.49 168.14 5.49 168.14 C 2.53 168.14 0.13 165.75 0.13 162.79 C 0.13 162.79 0.13 5.96 0.13 5.96 C 0.13 3 2.53 0.6 5.49 0.6 Z" />
    <path fill="#39dcc9" fill-rule="evenodd" d="M 7.83 15.6 C 7.83 15.6 110.71 15.6 110.71 15.6 C 110.71 15.6 110.71 153.22 110.71 153.22 C 110.71 153.22 7.83 153.22 7.83 153.22 C 7.83 153.22 7.83 15.6 7.83 15.6 Z" />
    <path fill="#a5a5a5" fill-rule="evenodd" d="M 59.17 7.26 C 59.69 7.26 60.12 7.68 60.12 8.21 C 60.12 8.74 59.69 9.16 59.17 9.16 C 58.64 9.16 58.21 8.74 58.21 8.21 C 58.21 7.68 58.64 7.26 59.17 7.26 Z" />
    <path fill="#f6f6f6" fill-rule="evenodd" d="M 59.21 156.89 C 61.4 156.89 63.18 158.67 63.18 160.87 C 63.18 163.06 61.4 164.84 59.21 164.84 C 57.01 164.84 55.23 163.06 55.23 160.87 C 55.23 158.67 57.01 156.89 59.21 156.89 Z" />
</svg>