<!-- Generator: Avocode undefined - http://avocode.com -->
<svg height="246" width="173" xmlns:xlink="http://www.w3.org/1999/xlink" xmlns="http://www.w3.org/2000/svg" viewBox="0 0 173 246">
    <path fill="#474e5d" fill-rule="evenodd" d="M 7.96 0.61 C 7.96 0.61 164.93 0.61 164.93 0.61 C 169.25 0.61 172.75 4.11 172.75 8.42 C 172.75 8.42 172.75 237.44 172.75 237.44 C 172.75 241.76 169.25 245.26 164.93 245.26 C 164.93 245.26 7.96 245.26 7.96 245.26 C 3.64 245.26 0.14 241.76 0.14 237.44 C 0.14 237.44 0.14 8.42 0.14 8.42 C 0.14 4.11 3.64 0.61 7.96 0.61 Z" />
    <path fill="#fee9a3" fill-rule="evenodd" d="M 11.38 22.5 C 11.38 22.5 161.61 22.5 161.61 22.5 C 161.61 22.5 161.61 223.46 161.61 223.46 C 161.61 223.46 11.38 223.46 11.38 223.46 C 11.38 223.46 11.38 22.5 11.38 22.5 Z" />
    <path fill="#a5a5a5" fill-rule="evenodd" d="M 86.34 10.32 C 87.11 10.32 87.73 10.95 87.73 11.71 C 87.73 12.48 87.11 13.11 86.34 13.11 C 85.57 13.11 84.95 12.48 84.95 11.71 C 84.95 10.95 85.57 10.32 86.34 10.32 Z" />
    <path fill="#f6f6f6" fill-rule="evenodd" d="M 86.4 228.83 C 89.6 228.83 92.2 231.43 92.2 234.63 C 92.2 237.83 89.6 240.43 86.4 240.43 C 83.19 240.43 80.6 237.83 80.6 234.63 C 80.6 231.43 83.19 228.83 86.4 228.83 Z" />
</svg>