<!-- Generator: Avocode undefined - http://avocode.com -->
<svg height="577" width="408" xmlns:xlink="http://www.w3.org/1999/xlink" xmlns="http://www.w3.org/2000/svg" viewBox="0 0 408 577">
    <path fill="#474e5d" fill-rule="evenodd" d="M 19.38 0.12 C 19.38 0.12 389.54 0.12 389.54 0.12 C 399.72 0.12 407.98 8.37 407.98 18.55 C 407.98 18.55 407.98 558.58 407.98 558.58 C 407.98 568.76 399.72 577.02 389.54 577.02 C 389.54 577.02 19.38 577.02 19.38 577.02 C 9.2 577.02 0.94 568.76 0.94 558.58 C 0.94 558.58 0.94 18.55 0.94 18.55 C 0.94 8.37 9.2 0.12 19.38 0.12 Z" />
    <path fill="#fee9a3" fill-rule="evenodd" d="M 27.45 51.74 C 27.45 51.74 381.7 51.74 381.7 51.74 C 381.7 51.74 381.7 525.62 381.7 525.62 C 381.7 525.62 27.45 525.62 27.45 525.62 C 27.45 525.62 27.45 51.74 27.45 51.74 Z" />
    <path fill="#a5a5a5" fill-rule="evenodd" d="M 204.21 23.03 C 206.03 23.03 207.5 24.5 207.5 26.31 C 207.5 28.13 206.03 29.6 204.21 29.6 C 202.4 29.6 200.93 28.13 200.93 26.31 C 200.93 24.5 202.4 23.03 204.21 23.03 Z" />
    <path fill="#f6f6f6" fill-rule="evenodd" d="M 204.35 538.28 C 211.9 538.28 218.02 544.41 218.02 551.96 C 218.02 559.51 211.9 565.64 204.35 565.64 C 196.79 565.64 190.67 559.51 190.67 551.96 C 190.67 544.41 196.79 538.28 204.35 538.28 Z" />
</svg>