<!-- Generator: Avocode undefined - http://avocode.com -->
<svg height="156" width="75" xmlns:xlink="http://www.w3.org/1999/xlink" xmlns="http://www.w3.org/2000/svg" viewBox="0 0 75 156">
    <path fill="#474e5d" fill-rule="evenodd" d="M 11.14 0.28 C 11.14 0.28 64.07 0.28 64.07 0.28 C 69.77 0.28 74.4 4.9 74.4 10.6 C 74.4 10.6 74.4 145.64 74.4 145.64 C 74.4 151.34 69.77 155.97 64.07 155.97 C 64.07 155.97 11.14 155.97 11.14 155.97 C 5.44 155.97 0.81 151.34 0.81 145.64 C 0.81 145.64 0.81 10.6 0.81 10.6 C 0.81 4.9 5.44 0.28 11.14 0.28 Z" />
    <path fill="#a5a4a4" fill-rule="evenodd" d="M 37.54 6.6 C 38.29 6.6 38.9 7.21 38.9 7.96 C 38.9 8.71 38.29 9.31 37.54 9.31 C 36.79 9.31 36.18 8.71 36.18 7.96 C 36.18 7.21 36.79 6.6 37.54 6.6 Z" />
    <path fill="#a5a4a4" fill-rule="evenodd" d="M 31.99 12.41 C 31.99 12.41 42.96 12.41 42.96 12.41 C 43.71 12.41 44.32 13.02 44.32 13.77 C 44.32 14.51 43.71 15.12 42.96 15.12 C 42.96 15.12 31.99 15.12 31.99 15.12 C 31.24 15.12 30.63 14.51 30.63 13.77 C 30.63 13.02 31.24 12.41 31.99 12.41 Z" />
    <path fill="#f6f6f6" fill-rule="evenodd" d="M 37.48 138.03 C 41.18 138.03 44.19 141.04 44.19 144.74 C 44.19 148.45 41.18 151.46 37.48 151.46 C 33.77 151.46 30.76 148.45 30.76 144.74 C 30.76 141.04 33.77 138.03 37.48 138.03 Z" />
    <path fill="#f3787a" fill-rule="evenodd" d="M 5.2 21.7 C 5.2 21.7 69.75 21.7 69.75 21.7 C 69.75 21.7 69.75 134.67 69.75 134.67 C 69.75 134.67 5.2 134.67 5.2 134.67 C 5.2 134.67 5.2 21.7 5.2 21.7 Z" />
</svg>