<!-- Generator: Avocode undefined - http://avocode.com -->
<svg height="482" width="228" xmlns:xlink="http://www.w3.org/1999/xlink" xmlns="http://www.w3.org/2000/svg" viewBox="0 0 228 482">
    <path fill="#474e5d" fill-rule="evenodd" d="M 31.92 0.44 C 31.92 0.44 195.43 0.44 195.43 0.44 C 213.05 0.44 227.34 14.73 227.34 32.35 C 227.34 32.35 227.34 449.51 227.34 449.51 C 227.34 467.13 213.05 481.42 195.43 481.42 C 195.43 481.42 31.92 481.42 31.92 481.42 C 14.3 481.42 0.01 467.13 0.01 449.51 C 0.01 449.51 0.01 32.35 0.01 32.35 C 0.01 14.73 14.3 0.44 31.92 0.44 Z" />
    <path fill="#a5a4a4" fill-rule="evenodd" d="M 113.48 19.99 C 115.79 19.99 117.66 21.87 117.66 24.18 C 117.66 26.49 115.79 28.37 113.48 28.37 C 111.16 28.37 109.29 26.49 109.29 24.18 C 109.29 21.87 111.16 19.99 113.48 19.99 Z" />
    <path fill="#a5a4a4" fill-rule="evenodd" d="M 96.33 37.93 C 96.33 37.93 130.23 37.93 130.23 37.93 C 132.54 37.93 134.41 39.81 134.41 42.12 C 134.41 44.43 132.54 46.31 130.23 46.31 C 130.23 46.31 96.33 46.31 96.33 46.31 C 94.01 46.31 92.14 44.43 92.14 42.12 C 92.14 39.81 94.01 37.93 96.33 37.93 Z" />
    <path fill="#f6f6f6" fill-rule="evenodd" d="M 113.28 426.01 C 124.73 426.01 134.01 435.29 134.01 446.74 C 134.01 458.2 124.73 467.48 113.28 467.48 C 101.82 467.48 92.54 458.2 92.54 446.74 C 92.54 435.29 101.82 426.01 113.28 426.01 Z" />
    <path fill="#f3787a" fill-rule="evenodd" d="M 13.57 66.65 C 13.57 66.65 212.98 66.65 212.98 66.65 C 212.98 66.65 212.98 415.61 212.98 415.61 C 212.98 415.61 13.57 415.61 13.57 415.61 C 13.57 415.61 13.57 66.65 13.57 66.65 Z" />
</svg>