<!-- Generator: Avocode undefined - http://avocode.com -->
<svg height="225" width="394" xmlns:xlink="http://www.w3.org/1999/xlink" xmlns="http://www.w3.org/2000/svg" viewBox="0 0 394 225">
    <path fill="#474e5d" fill-rule="evenodd" d="M 48.43 0.08 C 48.43 0.08 345.91 0.08 345.91 0.08 C 351.62 0.08 356.24 4.71 356.24 10.42 C 356.24 10.42 356.24 209.7 356.24 209.7 C 356.24 215.41 351.62 220.04 345.91 220.04 C 345.91 220.04 48.43 220.04 48.43 220.04 C 42.72 220.04 38.09 215.41 38.09 209.7 C 38.09 209.7 38.09 10.42 38.09 10.42 C 38.09 4.71 42.72 0.08 48.43 0.08 Z" />
    <path fill="#a5a4a4" fill-rule="evenodd" d="M 197.06 4.93 C 198.09 4.93 198.92 5.76 198.92 6.79 C 198.92 7.82 198.09 8.65 197.06 8.65 C 196.04 8.65 195.2 7.82 195.2 6.79 C 195.2 5.76 196.04 4.93 197.06 4.93 Z" />
    <path fill="#e8ebf0" fill-rule="evenodd" d="M 0.89 212.8 C 0.89 212.8 0.41 225 38.1 225 C 38.1 225 356.04 225 356.04 225 C 356.04 225 393.05 224.57 393.05 212.8 C 393.05 212.8 0.89 212.8 0.89 212.8 Z" />
    <path fill="#c0c2c6" fill-rule="evenodd" d="M 169.78 212.8 C 169.78 212.8 170.45 217.04 173.76 217.04 C 173.76 217.04 220.53 217.04 220.53 217.04 C 220.53 217.04 223.84 216.63 224.61 212.8 C 224.61 212.8 169.78 212.8 169.78 212.8 Z" />
    <path fill="#f79231" fill-rule="evenodd" d="M 48.01 12.28 C 48.01 12.28 346.11 12.28 346.11 12.28 C 346.11 12.28 346.11 198.33 346.11 198.33 C 346.11 198.33 48.01 198.33 48.01 198.33 C 48.01 198.33 48.01 12.28 48.01 12.28 Z" />
</svg>