<!-- Generator: Avocode undefined - http://avocode.com -->
<svg height="25" width="25" xmlns:xlink="http://www.w3.org/1999/xlink" xmlns="http://www.w3.org/2000/svg" viewBox="0 0 25 25">
    <path fill="#545454" fill-rule="evenodd" d="M 24.65 0.62 C 24.52 0.54 24.38 0.5 24.23 0.5 C 24.09 0.5 23.94 0.54 23.81 0.63 C 23.81 0.63 0.84 15.94 0.84 15.94 C 0.61 16.1 0.47 16.38 0.51 16.66 C 0.53 16.94 0.72 17.18 0.98 17.29 C 0.98 17.29 6.97 19.69 6.97 19.69 C 6.97 19.69 9.79 24.61 9.79 24.61 C 9.92 24.85 10.17 25 10.44 25 C 10.45 25 10.45 25 10.45 25 C 10.72 25 10.97 24.86 11.11 24.63 C 11.11 24.63 12.7 21.98 12.7 21.98 C 12.7 21.98 20.12 24.95 20.12 24.95 C 20.21 24.98 20.31 25 20.41 25 C 20.54 25 20.67 24.97 20.78 24.9 C 20.98 24.79 21.12 24.59 21.16 24.36 C 21.16 24.36 24.99 1.39 24.99 1.39 C 25.04 1.09 24.91 0.79 24.65 0.62 Z M 2.9 16.41 C 2.9 16.41 20.64 4.58 20.64 4.58 C 20.64 4.58 7.74 18.39 7.74 18.39 C 7.68 18.35 7.62 18.29 7.54 18.26 C 7.54 18.26 2.9 16.41 2.9 16.41 Z M 8.3 18.93 C 8.3 18.92 8.3 18.92 8.3 18.92 C 8.3 18.92 22.8 3.39 22.8 3.39 C 22.8 3.39 10.43 22.66 10.43 22.66 C 10.43 22.66 8.3 18.93 8.3 18.93 Z M 19.81 23.17 C 19.81 23.17 13.27 20.55 13.27 20.55 C 13.11 20.49 12.95 20.47 12.79 20.46 C 12.79 20.46 22.86 4.85 22.86 4.85 C 22.86 4.85 19.81 23.17 19.81 23.17 Z" />
</svg>