<!-- Generator: Avocode undefined - http://avocode.com -->
<svg height="22" width="30" xmlns:xlink="http://www.w3.org/1999/xlink" xmlns="http://www.w3.org/2000/svg" viewBox="0 0 30 22">
    <path fill="#ffffff" fill-rule="evenodd" d="M 2 0 C 2 0 28 0 28 0 C 29.11 0 30 0.9 30 2 C 30 3.1 29.11 4 28 4 C 28 4 2 4 2 4 C 0.89 4 0 3.1 0 2 C 0 0.9 0.89 0 2 0 Z" />
    <path fill="#ffffff" fill-rule="evenodd" d="M 2 6 C 2 6 28 6 28 6 C 29.11 6 30 6.9 30 8 C 30 9.1 29.11 10 28 10 C 28 10 2 10 2 10 C 0.89 10 0 9.1 0 8 C 0 6.9 0.89 6 2 6 Z" />
    <path fill="#ffffff" fill-rule="evenodd" d="M 2 12 C 2 12 28 12 28 12 C 29.11 12 30 12.9 30 14 C 30 15.1 29.11 16 28 16 C 28 16 2 16 2 16 C 0.89 16 0 15.1 0 14 C 0 12.9 0.89 12 2 12 Z" />
    <path fill="#ffffff" fill-rule="evenodd" d="M 2 18 C 2 18 28 18 28 18 C 29.11 18 30 18.9 30 20 C 30 21.1 29.11 22 28 22 C 28 22 2 22 2 22 C 0.89 22 0 21.1 0 20 C 0 18.9 0.89 18 2 18 Z" />
</svg>