<!-- Generator: Avocode undefined - http://avocode.com -->
<svg height="23" width="24" xmlns:xlink="http://www.w3.org/1999/xlink" xmlns="http://www.w3.org/2000/svg" viewBox="0 0 24 23">
    <path fill="#545454" fill-rule="evenodd" d="M 23.79 5.88 C 22.97 6.38 21.62 6.73 20.83 6.7 C 22.19 6.03 22.89 5 22.91 3.97 C 22.53 4.49 21.08 5.45 20.08 5.47 C 19.95 5.27 19.83 5.09 19.71 4.93 C 18.07 2.7 15 1.58 12.71 2.76 C 12.87 2.61 13.04 2.46 13.21 2.31 C 13.43 2.11 14.87 1.25 14.41 0.79 C 14.02 0.38 12.47 1.98 12.16 2.23 C 12.56 1.87 13.21 1.26 13.08 0.67 C 12.4 1.05 11.83 1.68 11.49 2.39 C 11.6 2.1 11.64 1.78 11.56 1.49 C 10.14 3.48 10.01 6.44 10.07 9.23 C 9.08 8.81 8.23 8.5 7.55 8.42 C 5.63 8.17 3.38 8.01 -0.04 8.05 C 0.27 9.09 1.37 10.2 3.38 10.43 C 3 10.53 2.38 10.9 1.91 11.23 C 2.58 12.3 3.65 12.97 5.73 12.68 C 4.88 13.08 4.51 13.46 4.28 14.05 C 4.99 14.7 6.32 15.26 7.98 14.39 C 6.38 15.99 8.14 17.12 9.62 16.27 C 8.06 20.14 3.75 21.59 0.4 20.18 C 10.19 26.51 22.53 17.5 21.24 8.22 C 22.79 7.62 23.47 6.71 23.79 5.88 Z" />
</svg>