<?xml version="1.0" encoding="utf-8"?>
<!-- Generated by IcoMoon.io -->
<!DOCTYPE svg PUBLIC "-//W3C//DTD SVG 1.1//EN" "http://www.w3.org/Graphics/SVG/1.1/DTD/svg11.dtd">
<svg version="1.1" xmlns="http://www.w3.org/2000/svg" xmlns:xlink="http://www.w3.org/1999/xlink" width="32" height="32" viewBox="0 0 32 32">
<path fill="#444444" d="M18.286 26.786q-0.75-4.304-2.501-8.893h-0.035l-0.035 0.018q-0.286 0.107-0.768 0.295t-1.803 0.875-2.447 1.464-2.339 2.045-1.839 2.642l-0.267-0.197q3.286 2.679 7.464 2.679 2.358 0 4.571-0.928zM14.982 15.946q-0.375-0.875-0.946-1.982-5.553 1.661-12.018 1.661-0.018 0.125-0.018 0.375 0 2.214 0.786 4.223t2.214 3.598q0.893-1.59 2.206-2.974t2.545-2.223 2.33-1.447 1.777-0.857l0.661-0.232q0.072-0.018 0.232-0.063t0.232-0.080zM13.072 12.161q-2.143-3.803-4.358-6.75-2.464 1.161-4.178 3.321t-2.286 4.857q5.393 0 10.822-1.429zM25.286 17.857q-3.75-1.072-7.304-0.518 1.553 4.267 2.286 8.375 1.982-1.339 3.304-3.384t1.714-4.473zM10.911 4.625q-0.018 0-0.035 0.018 0.018-0.018 0.035-0.018zM21.447 7.214q-3.304-2.928-7.733-2.928-1.358 0-2.768 0.339 2.339 3.035 4.393 6.822 1.232-0.464 2.321-1.080t1.723-1.098 1.169-1.018 0.67-0.723zM25.429 15.875q-0.054-4.143-2.661-7.321l-0.018 0.018q-0.161 0.214-0.339 0.438t-0.777 0.794-1.267 1.080-1.786 1.161-2.349 1.152q0.447 0.946 0.786 1.696 0.035 0.107 0.117 0.312t0.134 0.295q0.642-0.089 1.33-0.125t1.312-0.035 1.232 0.026 1.143 0.072 1.009 0.098 0.857 0.117 0.651 0.107 0.447 0.080zM27.429 16q0 3.733-1.839 6.883t-4.991 4.991-6.883 1.839-6.883-1.839-4.991-4.991-1.839-6.883 1.839-6.883 4.991-4.991 6.883-1.839 6.883 1.839 4.991 4.991 1.839 6.883z"></path>
</svg>
