<?xml version="1.0" encoding="utf-8"?>
<!-- Generated by IcoMoon.io -->
<!DOCTYPE svg PUBLIC "-//W3C//DTD SVG 1.1//EN" "http://www.w3.org/Graphics/SVG/1.1/DTD/svg11.dtd">
<svg version="1.1" xmlns="http://www.w3.org/2000/svg" xmlns:xlink="http://www.w3.org/1999/xlink" width="32" height="32" viewBox="0 0 32 32">
<path fill="#444444" d="M16 0c-8.825 0-16 7.175-16 16s7.175 16 16 16c8.825 0 16-7.175 16-16s-7.175-16-16-16zM23.629 27.352c-0.135-0.825-0.859-4.834-2.644-9.752 4.278-0.674 8.034 0.455 8.505 0.589-0.606 3.806-2.796 7.091-5.861 9.162zM20.143 15.461c-0.101-0.236-0.185-0.472-0.286-0.707-0.286-0.674-0.589-1.331-0.909-1.987 5.053-2.055 7.343-5.002 7.629-5.389 1.903 2.324 3.048 5.288 3.082 8.522-0.455-0.101-4.968-1.011-9.516-0.438zM17.886 10.745c-2.24-4.126-4.716-7.495-5.086-8 1.027-0.253 2.088-0.387 3.2-0.387 3.469 0 6.636 1.297 9.061 3.453-0.253 0.337-2.307 3.116-7.175 4.935zM2.627 13.221c0.876-4.227 3.739-7.764 7.562-9.566 0.354 0.505 2.796 3.874 5.069 7.899-6.4 1.701-12.025 1.684-12.632 1.667zM16.387 13.659c0.387 0.775 0.758 1.549 1.095 2.324-0.168 0.051-0.354 0.101-0.522 0.168-7.057 2.274-10.813 8.488-11.116 9.011-2.189-2.425-3.52-5.625-3.52-9.145 0-0.135 0.017-0.269 0.017-0.404 0.589 0 7.208 0.084 14.046-1.954zM18.324 18.274c0.034-0.017 0.067-0.017 0.101-0.034 1.92 4.985 2.712 9.162 2.914 10.358-1.651 0.707-3.453 1.095-5.339 1.095-3.166 0-6.080-1.078-8.387-2.897 0.236-0.488 3.015-5.844 10.712-8.522z"></path>
</svg>
