<?xml version="1.0" encoding="utf-8"?>
<!-- Generated by IcoMoon.io -->
<!DOCTYPE svg PUBLIC "-//W3C//DTD SVG 1.1//EN" "http://www.w3.org/Graphics/SVG/1.1/DTD/svg11.dtd">
<svg version="1.1" xmlns="http://www.w3.org/2000/svg" xmlns:xlink="http://www.w3.org/1999/xlink" width="32" height="32" viewBox="0 0 32 32">
<path fill="#444444" d="M29.714 26.857v-13.714q-0.571 0.642-1.232 1.178-4.786 3.679-7.607 6.035-0.911 0.768-1.482 1.197t-1.545 0.866-1.831 0.438h-0.035q-0.857 0-1.831-0.438t-1.545-0.866-1.482-1.197q-2.822-2.358-7.607-6.035-0.661-0.536-1.232-1.178v13.714q0 0.232 0.169 0.402t0.402 0.169h26.286q0.232 0 0.402-0.169t0.169-0.402zM29.714 8.089v-0.438t-0.009-0.232-0.054-0.223-0.098-0.161-0.161-0.134-0.25-0.045h-26.286q-0.232 0-0.402 0.169t-0.169 0.402q0 3 2.625 5.072 3.447 2.714 7.161 5.661 0.107 0.089 0.625 0.527t0.822 0.67 0.794 0.562 0.902 0.491 0.768 0.161h0.035q0.358 0 0.768-0.161t0.902-0.491 0.794-0.562 0.822-0.67 0.625-0.527q3.714-2.946 7.161-5.661 0.965-0.768 1.794-2.063t0.831-2.349zM32 7.429v19.429q0 1.178-0.839 2.018t-2.018 0.839h-26.286q-1.178 0-2.018-0.839t-0.839-2.018v-19.429q0-1.178 0.839-2.018t2.018-0.839h26.286q1.178 0 2.018 0.839t0.839 2.018z"></path>
</svg>
