<?xml version="1.0" encoding="utf-8"?>
<!-- Generated by IcoMoon.io -->
<!DOCTYPE svg PUBLIC "-//W3C//DTD SVG 1.1//EN" "http://www.w3.org/Graphics/SVG/1.1/DTD/svg11.dtd">
<svg version="1.1" xmlns="http://www.w3.org/2000/svg" xmlns:xlink="http://www.w3.org/1999/xlink" width="17" height="32" viewBox="0 0 17 32">
<path fill="#444444" d="M11.469 0.017c-1.903 0-3.773 0.32-5.019 0.943-1.246 0.64-2.156 1.752-2.627 2.779-0.472 0.994-0.691 2.223-0.691 4.278 0 0 0 2.021 0 2.021s-3.149 0-3.149 0c0 0 0 5.086 0 5.086s3.149 0 3.149 0c0 0 0 16.876 0 16.876s6.703 0 6.703 0c0 0 0-16.876 0-16.876s4.194 0 4.194 0c0 0 1.162-5.086 1.162-5.086s-5.356 0-5.356 0c0 0 0-1.903 0-1.903 0-1.246 0.219-2.072 0.657-2.509 0.421-0.438 1.297-0.775 2.291-0.775 1.011 0 1.836 0.573 2.846 1.179 0 0 1.229-4.783 1.229-4.783-1.886-0.556-3.419-1.229-5.389-1.229z"></path>
</svg>
