<?xml version="1.0" encoding="utf-8"?>
<!-- Generated by IcoMoon.io -->
<!DOCTYPE svg PUBLIC "-//W3C//DTD SVG 1.1//EN" "http://www.w3.org/Graphics/SVG/1.1/DTD/svg11.dtd">
<svg version="1.1" xmlns="http://www.w3.org/2000/svg" xmlns:xlink="http://www.w3.org/1999/xlink" width="39" height="32" viewBox="0 0 39 32">
<path fill="rgb(232, 235, 240)" d="M0.016 22.826c0 0 38.665 0 38.665 0s0 0.412 0 0.92c0 0 0 3.221 0 3.221 0 0.509-0.412 0.92-0.92 0.92 0 0-36.826 0-36.826 0-0.508 0-0.92-0.412-0.92-0.92 0 0 0-3.221 0-3.221 0-0.508 0.001-0.92 0.001-0.92z"></path>
<path fill="rgb(232, 235, 240)" d="M14.913 27.913c0 0-0.257 3.588-0.58 3.57 0 0-1.849 0.267-1.647 0.341 0 0-0.175 0.11 0.746 0.129 0 0 9.616 0 9.616 0s1.389 0 1.389 0c0 0 0.525 0 0.525 0s0.285 0 0.285 0c0 0 0.773 0.028 0.663-0.147 0 0-0.305-0.174-1.676-0.322 0 0-0.257 0.137-0.543-3.598 0 0-8.778 0.027-8.778 0.027z"></path>
<path fill="rgb(216, 219, 225)" d="M14.911 27.886c0 0 8.779 0 8.779 0s0.037 0.746 0.037 0.746c0 0-8.871 0-8.871 0s0.054-0.746 0.054-0.746z"></path>
<path fill="rgb(71, 78, 93)" d="M0.934 0.041c0 0 36.826 0 36.826 0 0.509 0 0.92 0.412 0.92 0.92 0 0 0 22.434 0 22.434 0 0.509 0 0.92 0 0.92s-38.665 0-38.665 0c0 0-0.001-0.412-0.001-0.92 0 0 0-22.434 0-22.434 0-0.508 0.412-0.92 0.92-0.92z"></path>
<path fill="rgb(112, 198, 235)" d="M1.671 1.588c0 0 35.39 0 35.39 0s0 21.201 0 21.201c0 0-35.39 0-35.39 0s0-21.201 0-21.201z"></path>
<path fill="rgb(165, 165, 165)" d="M19.375 0.538c0.143 0 0.258 0.115 0.258 0.257s-0.115 0.258-0.258 0.258c-0.142 0-0.257-0.115-0.257-0.258s0.115-0.257 0.257-0.257z"></path>
<path fill="rgb(71, 78, 93)" d="M19.339 25.089c0.508 0 0.92 0.412 0.92 0.92s-0.412 0.92-0.92 0.92c-0.509 0-0.92-0.412-0.92-0.92s0.412-0.92 0.92-0.92z"></path>
</svg>
