<?xml version="1.0" encoding="utf-8"?>
<!-- Generated by IcoMoon.io -->
<!DOCTYPE svg PUBLIC "-//W3C//DTD SVG 1.1//EN" "http://www.w3.org/Graphics/SVG/1.1/DTD/svg11.dtd">
<svg version="1.1" xmlns="http://www.w3.org/2000/svg" xmlns:xlink="http://www.w3.org/1999/xlink" width="23" height="32" viewBox="0 0 23 32">
<path fill="rgb(71, 78, 93)" d="M1.040 0.114c0 0 20.355 0 20.355 0 0.56 0 1.013 0.454 1.013 1.015 0 0 0 29.696 0 29.696 0 0.56-0.453 1.013-1.013 1.013 0 0-20.355 0-20.355 0-0.56 0-1.015-0.453-1.015-1.013 0 0 0-29.696 0-29.696 0-0.56 0.454-1.015 1.015-1.015z"></path>
<path fill="rgb(57, 220, 201)" d="M1.483 2.954c0 0 19.48 0 19.48 0s0 26.058 0 26.058c0 0-19.48 0-19.48 0s0-26.058 0-26.058z"></path>
<path fill="rgb(165, 165, 165)" d="M11.204 1.375c0.098 0 0.18 0.080 0.18 0.18s-0.081 0.18-0.18 0.18c-0.1 0-0.182-0.080-0.182-0.18s0.081-0.18 0.182-0.18z"></path>
<path fill="rgb(246, 246, 246)" d="M11.211 29.707c0.415 0 0.752 0.337 0.752 0.754 0 0.415-0.337 0.752-0.752 0.752-0.417 0-0.754-0.337-0.754-0.752 0-0.417 0.337-0.754 0.754-0.754z"></path>
</svg>
