<?xml version="1.0" encoding="utf-8"?>
<!-- Generated by IcoMoon.io -->
<!DOCTYPE svg PUBLIC "-//W3C//DTD SVG 1.1//EN" "http://www.w3.org/Graphics/SVG/1.1/DTD/svg11.dtd">
<svg version="1.1" xmlns="http://www.w3.org/2000/svg" xmlns:xlink="http://www.w3.org/1999/xlink" width="15" height="32" viewBox="0 0 15 32">
<path fill="rgb(71, 78, 93)" d="M2.285 0.057c0 0 10.857 0 10.857 0 1.169 0 2.119 0.948 2.119 2.117 0 0 0 27.701 0 27.701 0 1.169-0.95 2.119-2.119 2.119 0 0-10.857 0-10.857 0-1.169 0-2.119-0.95-2.119-2.119 0 0 0-27.701 0-27.701 0-1.169 0.95-2.117 2.119-2.117z"></path>
<path fill="rgb(165, 164, 164)" d="M7.7 1.354c0.154 0 0.279 0.125 0.279 0.279s-0.125 0.277-0.279 0.277c-0.154 0-0.279-0.123-0.279-0.277s0.125-0.279 0.279-0.279z"></path>
<path fill="rgb(165, 164, 164)" d="M6.562 2.546c0 0 2.25 0 2.25 0 0.154 0 0.279 0.125 0.279 0.279 0 0.152-0.125 0.277-0.279 0.277 0 0-2.25 0-2.25 0-0.154 0-0.279-0.125-0.279-0.277 0-0.154 0.125-0.279 0.279-0.279z"></path>
<path fill="rgb(246, 246, 246)" d="M7.688 28.314c0.759 0 1.376 0.617 1.376 1.376 0 0.761-0.617 1.378-1.376 1.378-0.761 0-1.378-0.617-1.378-1.378 0-0.759 0.617-1.376 1.378-1.376z"></path>
<path fill="rgb(243, 120, 122)" d="M1.067 4.451c0 0 13.241 0 13.241 0s0 23.173 0 23.173c0 0-13.241 0-13.241 0s0-23.173 0-23.173z"></path>
</svg>
