<?xml version="1.0" encoding="utf-8"?>
<!-- Generated by IcoMoon.io -->
<!DOCTYPE svg PUBLIC "-//W3C//DTD SVG 1.1//EN" "http://www.w3.org/Graphics/SVG/1.1/DTD/svg11.dtd">
<svg version="1.1" xmlns="http://www.w3.org/2000/svg" xmlns:xlink="http://www.w3.org/1999/xlink" width="15" height="32" viewBox="0 0 15 32">
<path fill="rgb(71, 78, 93)" d="M2.119 0.029c0 0 10.855 0 10.855 0 1.17 0 2.119 0.949 2.119 2.119 0 0 0 27.695 0 27.695 0 1.17-0.949 2.119-2.119 2.119 0 0-10.855 0-10.855 0-1.17 0-2.119-0.949-2.119-2.119 0 0 0-27.695 0-27.695 0-1.17 0.949-2.119 2.119-2.119z"></path>
<path fill="rgb(165, 164, 164)" d="M7.534 1.327c0.153 0 0.277 0.125 0.277 0.278s-0.124 0.278-0.277 0.278c-0.154 0-0.278-0.125-0.278-0.278s0.124-0.278 0.278-0.278z"></path>
<path fill="rgb(165, 164, 164)" d="M6.395 2.518c0 0 2.251 0 2.251 0 0.153 0 0.277 0.125 0.277 0.278s-0.124 0.278-0.277 0.278c0 0-2.251 0-2.251 0-0.154 0-0.278-0.125-0.278-0.278s0.124-0.278 0.278-0.278z"></path>
<path fill="rgb(246, 246, 246)" d="M7.521 28.283c0.76 0 1.376 0.616 1.376 1.376s-0.616 1.377-1.376 1.377c-0.761 0-1.377-0.616-1.377-1.377s0.616-1.376 1.377-1.376z"></path>
<path fill="rgb(243, 120, 122)" d="M0.901 4.425c0 0 13.239 0 13.239 0s0 23.167 0 23.167c0 0-13.239 0-13.239 0s0-23.167 0-23.167z"></path>
</svg>
