<?xml version="1.0" encoding="utf-8"?>
<!-- Generated by IcoMoon.io -->
<!DOCTYPE svg PUBLIC "-//W3C//DTD SVG 1.1//EN" "http://www.w3.org/Graphics/SVG/1.1/DTD/svg11.dtd">
<svg version="1.1" xmlns="http://www.w3.org/2000/svg" xmlns:xlink="http://www.w3.org/1999/xlink" width="56" height="32" viewBox="0 0 56 32">
<path fill="rgb(71, 78, 93)" d="M6.888 0.011c0 0 42.308 0 42.308 0 0.812 0 1.469 0.658 1.469 1.471 0 0 0 28.342 0 28.342 0 0.812-0.657 1.471-1.469 1.471 0 0-42.308 0-42.308 0-0.812 0-1.471-0.659-1.471-1.471 0 0 0-28.342 0-28.342 0-0.812 0.659-1.471 1.471-1.471z"></path>
<path fill="rgb(165, 164, 164)" d="M28.026 0.701c0.146 0 0.265 0.118 0.265 0.265s-0.118 0.265-0.265 0.265c-0.145 0-0.265-0.118-0.265-0.265s0.119-0.265 0.265-0.265z"></path>
<path fill="rgb(232, 235, 240)" d="M0.127 30.265c0 0-0.068 1.735 5.292 1.735 0 0 45.218 0 45.218 0s5.264-0.061 5.264-1.735c0 0-55.774 0-55.774 0z"></path>
<path fill="rgb(192, 194, 198)" d="M24.146 30.265c0 0 0.095 0.603 0.566 0.603 0 0 6.652 0 6.652 0s0.471-0.058 0.58-0.603c0 0-7.798 0-7.798 0z"></path>
<path fill="rgb(247, 146, 49)" d="M6.828 1.746c0 0 42.396 0 42.396 0s0 26.46 0 26.46c0 0-42.396 0-42.396 0s0-26.46 0-26.46z"></path>
</svg>
