<?xml version="1.0" encoding="utf-8"?>
<!-- Generated by IcoMoon.io -->
<!DOCTYPE svg PUBLIC "-//W3C//DTD SVG 1.1//EN" "http://www.w3.org/Graphics/SVG/1.1/DTD/svg11.dtd">
<svg version="1.1" xmlns="http://www.w3.org/2000/svg" xmlns:xlink="http://www.w3.org/1999/xlink" width="32" height="32" viewBox="0 0 32 32">
<path fill="#444444" d="M31.552 0.794c-0.166-0.102-0.346-0.154-0.538-0.154-0.179 0-0.371 0.051-0.538 0.166 0 0-29.402 19.597-29.402 19.597-0.294 0.205-0.474 0.563-0.422 0.922 0.026 0.358 0.269 0.666 0.602 0.806 0 0 7.667 3.072 7.667 3.072s3.61 6.298 3.61 6.298c0.166 0.307 0.486 0.499 0.832 0.499 0.013 0 0.013 0 0.013 0 0.346 0 0.666-0.179 0.845-0.474 0 0 2.035-3.392 2.035-3.392s9.498 3.802 9.498 3.802c0.115 0.038 0.243 0.064 0.371 0.064 0.166 0 0.333-0.038 0.474-0.128 0.256-0.141 0.435-0.397 0.486-0.691 0 0 4.902-29.402 4.902-29.402 0.064-0.384-0.102-0.768-0.435-0.986zM3.712 21.005c0 0 22.707-15.142 22.707-15.142s-16.512 17.677-16.512 17.677c-0.077-0.051-0.154-0.128-0.256-0.166 0 0-5.939-2.368-5.939-2.368zM10.624 24.23c0-0.013 0-0.013 0-0.013s18.56-19.878 18.56-19.878c0 0-15.834 24.666-15.834 24.666s-2.726-4.774-2.726-4.774zM25.357 29.658c0 0-8.371-3.354-8.371-3.354-0.205-0.077-0.41-0.102-0.614-0.115 0 0 12.89-19.981 12.89-19.981s-3.904 23.45-3.904 23.45z"></path>
</svg>
