<?xml version="1.0" encoding="utf-8"?>
<!-- Generated by IcoMoon.io -->
<!DOCTYPE svg PUBLIC "-//W3C//DTD SVG 1.1//EN" "http://www.w3.org/Graphics/SVG/1.1/DTD/svg11.dtd">
<svg version="1.1" xmlns="http://www.w3.org/2000/svg" xmlns:xlink="http://www.w3.org/1999/xlink" width="44" height="32" viewBox="0 0 44 32">
<path fill="#444444" d="M2.909 0c0 0 37.818 0 37.818 0 1.615 0 2.909 1.309 2.909 2.909s-1.295 2.909-2.909 2.909c0 0-37.818 0-37.818 0-1.615 0-2.909-1.309-2.909-2.909s1.295-2.909 2.909-2.909z"></path>
<path fill="#444444" d="M2.909 8.727c0 0 37.818 0 37.818 0 1.615 0 2.909 1.309 2.909 2.909s-1.295 2.909-2.909 2.909c0 0-37.818 0-37.818 0-1.615 0-2.909-1.309-2.909-2.909s1.295-2.909 2.909-2.909z"></path>
<path fill="#444444" d="M2.909 17.455c0 0 37.818 0 37.818 0 1.615 0 2.909 1.309 2.909 2.909s-1.295 2.909-2.909 2.909c0 0-37.818 0-37.818 0-1.615 0-2.909-1.309-2.909-2.909s1.295-2.909 2.909-2.909z"></path>
<path fill="#444444" d="M2.909 26.182c0 0 37.818 0 37.818 0 1.615 0 2.909 1.309 2.909 2.909s-1.295 2.909-2.909 2.909c0 0-37.818 0-37.818 0-1.615 0-2.909-1.309-2.909-2.909s1.295-2.909 2.909-2.909z"></path>
</svg>
