<?xml version="1.0" encoding="utf-8"?>
<!-- Generated by IcoMoon.io -->
<!DOCTYPE svg PUBLIC "-//W3C//DTD SVG 1.1//EN" "http://www.w3.org/Graphics/SVG/1.1/DTD/svg11.dtd">
<svg version="1.1" xmlns="http://www.w3.org/2000/svg" xmlns:xlink="http://www.w3.org/1999/xlink" width="33" height="32" viewBox="0 0 33 32">
<path fill="#444444" d="M33.099 8.181c-1.141 0.696-3.019 1.183-4.118 1.141 1.892-0.932 2.866-2.365 2.894-3.798-0.529 0.723-2.546 2.059-3.937 2.087-0.181-0.278-0.348-0.529-0.515-0.751-2.282-3.103-6.553-4.661-9.739-3.019 0.223-0.209 0.459-0.417 0.696-0.626 0.306-0.278 2.31-1.475 1.67-2.115-0.543-0.57-2.699 1.656-3.13 2.003 0.557-0.501 1.461-1.35 1.28-2.17-0.946 0.529-1.739 1.405-2.212 2.393 0.153-0.403 0.209-0.849 0.097-1.252-1.976 2.769-2.157 6.887-2.073 10.769-1.377-0.584-2.56-1.016-3.506-1.127-2.671-0.348-5.802-0.57-10.56-0.515 0.431 1.447 1.962 2.991 4.758 3.311-0.529 0.139-1.391 0.654-2.045 1.113 0.932 1.489 2.421 2.421 5.315 2.017-1.183 0.557-1.697 1.085-2.017 1.906 0.988 0.904 2.838 1.683 5.148 0.473-2.226 2.226 0.223 3.798 2.282 2.616-2.17 5.384-8.167 7.402-12.828 5.44 13.621 8.807 30.79-3.729 28.995-16.64 2.157-0.835 3.103-2.101 3.548-3.256z"></path>
</svg>
