<?xml version="1.0" encoding="utf-8"?>
<!-- Generated by IcoMoon.io -->
<!DOCTYPE svg PUBLIC "-//W3C//DTD SVG 1.1//EN" "http://www.w3.org/Graphics/SVG/1.1/DTD/svg11.dtd">
<svg version="1.1" xmlns="http://www.w3.org/2000/svg" xmlns:xlink="http://www.w3.org/1999/xlink" width="34" height="32" viewBox="0 0 34 32">
<path fill="#444444" d="M22.857 16.571q0-0.25-0.161-0.41t-0.41-0.161h-4v-6.286q0-0.232-0.169-0.402t-0.402-0.169h-3.429q-0.232 0-0.402 0.169t-0.169 0.402v6.286h-4q-0.232 0-0.402 0.169t-0.169 0.402q0 0.25 0.161 0.41l6.286 6.286q0.161 0.161 0.41 0.161t0.41-0.161l6.267-6.267q0.178-0.214 0.178-0.429zM34.286 20.571q0 2.839-2.009 4.848t-4.848 2.009h-19.429q-3.304 0-5.651-2.349t-2.349-5.651q0-2.321 1.25-4.286t3.358-2.946q-0.035-0.536-0.035-0.768 0-3.786 2.679-6.464t6.464-2.679q2.786 0 5.098 1.553t3.366 4.125q1.267-1.107 2.965-1.107 1.893 0 3.232 1.339t1.339 3.232q0 1.358-0.733 2.464 2.321 0.553 3.813 2.419t1.491 4.259z"></path>
</svg>
