<?xml version="1.0" encoding="utf-8"?>
<!-- Generated by IcoMoon.io -->
<!DOCTYPE svg PUBLIC "-//W3C//DTD SVG 1.1//EN" "http://www.w3.org/Graphics/SVG/1.1/DTD/svg11.dtd">
<svg version="1.1" xmlns="http://www.w3.org/2000/svg" xmlns:xlink="http://www.w3.org/1999/xlink" width="23" height="32" viewBox="0 0 23 32">
<path fill="rgb(71, 78, 93)" d="M1.035 0.079c0 0 20.419 0 20.419 0 0.562 0 1.017 0.455 1.017 1.016 0 0 0 29.791 0 29.791 0 0.562-0.455 1.017-1.017 1.017 0 0-20.419 0-20.419 0-0.562 0-1.017-0.455-1.017-1.017 0 0 0-29.791 0-29.791 0-0.561 0.455-1.016 1.017-1.016z"></path>
<path fill="rgb(254, 233, 163)" d="M1.48 2.927c0 0 19.542 0 19.542 0s0 26.141 0 26.141c0 0-19.542 0-19.542 0s0-26.141 0-26.141z"></path>
<path fill="rgb(165, 165, 165)" d="M11.231 1.342c0.1 0 0.181 0.082 0.181 0.181 0 0.1-0.081 0.182-0.181 0.182s-0.181-0.082-0.181-0.182c0-0.099 0.081-0.181 0.181-0.181z"></path>
<path fill="rgb(246, 246, 246)" d="M11.239 29.767c0.416 0 0.754 0.338 0.754 0.754s-0.338 0.754-0.754 0.754c-0.418 0-0.754-0.338-0.754-0.754s0.337-0.754 0.754-0.754z"></path>
</svg>
