<?xml version="1.0" encoding="utf-8"?>
<!-- Generated by IcoMoon.io -->
<!DOCTYPE svg PUBLIC "-//W3C//DTD SVG 1.1//EN" "http://www.w3.org/Graphics/SVG/1.1/DTD/svg11.dtd">
<svg version="1.1" xmlns="http://www.w3.org/2000/svg" xmlns:xlink="http://www.w3.org/1999/xlink" width="23" height="32" viewBox="0 0 23 32">
<path fill="rgb(71, 78, 93)" d="M1.075 0.007c0 0 20.529 0 20.529 0 0.565 0 1.023 0.458 1.023 1.022 0 0 0 29.95 0 29.95 0 0.565-0.458 1.023-1.023 1.023 0 0-20.529 0-20.529 0-0.565 0-1.023-0.458-1.023-1.023 0 0 0-29.95 0-29.95 0-0.565 0.458-1.022 1.023-1.022z"></path>
<path fill="rgb(254, 233, 163)" d="M1.522 2.869c0 0 19.646 0 19.646 0s0 26.281 0 26.281c0 0-19.646 0-19.646 0s0-26.281 0-26.281z"></path>
<path fill="rgb(165, 165, 165)" d="M11.325 1.277c0.101 0 0.182 0.082 0.182 0.182s-0.082 0.182-0.182 0.182c-0.1 0-0.182-0.082-0.182-0.182s0.082-0.182 0.182-0.182z"></path>
<path fill="rgb(246, 246, 246)" d="M11.333 29.853c0.419 0 0.758 0.34 0.758 0.759s-0.339 0.759-0.758 0.759c-0.419 0-0.759-0.34-0.759-0.759s0.339-0.759 0.759-0.759z"></path>
</svg>
